<svg width="1422" height="800" xmlns="http://www.w3.org/2000/svg">
 <defs>
  <linearGradient id="oooscillate-grad" y2="100%" x2="50%" y1="0%" x1="50%">
   <stop offset="0%" stop-color="hsl(37, 99%, 67%)"/>
   <stop offset="100%" stop-color="hsl(316, 73%, 52%)"/>
  </linearGradient>
 </defs>
 <g>
  <title>background</title>
  <rect fill="none" id="canvas_background" height="402" width="582" y="-1" x="-1"/>
 </g>
 <g>
  <title>Layer 1</title>
  <g id="svg_1" stroke-linecap="round" fill="none" stroke="url(#oooscillate-grad)" stroke-width="2">
   <path id="svg_2" d="m0,616q355.5,-716 711,-216q355.5,500 711,216"/>
   <path id="svg_3" opacity="0.96" d="m0,594q355.5,-694 711,-194q355.5,500 711,194"/>
   <path id="svg_4" opacity="0.93" d="m0,572q355.5,-672 711,-172q355.5,500 711,172"/>
   <path id="svg_5" opacity="0.89" d="m0,550q355.5,-650 711,-150q355.5,500 711,150"/>
   <path id="svg_6" opacity="0.86" d="m0,528q355.5,-628 711,-128q355.5,500 711,128"/>
   <path id="svg_7" opacity="0.82" d="m0,506q355.5,-606 711,-106q355.5,500 711,106"/>
   <path id="svg_8" opacity="0.79" d="m0,484q355.5,-584 711,-84q355.5,500 711,84"/>
   <path id="svg_9" opacity="0.75" d="m0,462q355.5,-562 711,-62q355.5,500 711,62"/>
   <path id="svg_10" opacity="0.72" d="m0,440q355.5,-540 711,-40q355.5,500 711,40"/>
   <path id="svg_11" opacity="0.68" d="m0,418q355.5,-518 711,-18q355.5,500 711,18"/>
   <path id="svg_12" opacity="0.65" d="m0,396q355.5,-496 711,4q355.5,500 711,-4"/>
   <path id="svg_13" opacity="0.61" d="m0,374q355.5,-474 711,26q355.5,500 711,-26"/>
   <path id="svg_14" opacity="0.58" d="m0,352q355.5,-452 711,48q355.5,500 711,-48"/>
   <path id="svg_15" opacity="0.54" d="m0,330q355.5,-430 711,70q355.5,500 711,-70"/>
   <path id="svg_16" opacity="0.51" d="m0,308q355.5,-408 711,92q355.5,500 711,-92"/>
   <path id="svg_17" opacity="0.47" d="m0,286q355.5,-386 711,114q355.5,500 711,-114"/>
   <path id="svg_18" opacity="0.44" d="m0,264q355.5,-364 711,136q355.5,500 711,-136"/>
   <path id="svg_19" opacity="0.4" d="m0,242q355.5,-342 711,158q355.5,500 711,-158"/>
   <path id="svg_20" opacity="0.37" d="m0,220q355.5,-320 711,180q355.5,500 711,-180"/>
   <path id="svg_21" opacity="0.33" d="m0,198q355.5,-298 711,202q355.5,500 711,-202"/>
   <path id="svg_22" opacity="0.3" d="m0,176q355.5,-276 711,224q355.5,500 711,-224"/>
   <path id="svg_23" opacity="0.26" d="m0,154q355.5,-254 711,246q355.5,500 711,-246"/>
   <path id="svg_24" opacity="0.23" d="m0,132q355.5,-232 711,268q355.5,500 711,-268"/>
   <path id="svg_25" opacity="0.19" d="m0,110q355.5,-210 711,290q355.5,500 711,-290"/>
   <path id="svg_26" opacity="0.16" d="m0,88q355.5,-188 711,312q355.5,500 711,-312"/>
   <path id="svg_27" opacity="0.12" d="m0,66q355.5,-166 711,334q355.5,500 711,-334"/>
   <path id="svg_28" opacity="0.09" d="m0,44q355.5,-144 711,356q355.5,500 711,-356"/>
  </g>
  <text stroke="#000" transform="matrix(5.253277153455486,0,0,5.362171173095703,-3779.851699885946,-1309.8577116446104) " xml:space="preserve" text-anchor="start" font-family="'Palatino Linotype', 'Book Antiqua', Palatino, serif" font-size="24" id="svg_29" y="331.935464" x="796.889295" stroke-width="0" fill="#7f00ff">Jane</text>
  <text stroke="#000" transform="matrix(5.253277153455486,0,0,5.362171173095703,-3779.851699885946,-1309.8577116446104) " xml:space="preserve" text-anchor="start" font-family="'Palatino Linotype', 'Book Antiqua', Palatino, serif" font-size="24" id="svg_30" y="331.935464" x="877.600818" stroke-width="0" fill="#0000ff">Mur</text>
 </g>
</svg>